<svg width="79" height="96" viewBox="0 0 79 96" fill="none" xmlns="http://www.w3.org/2000/svg">
<path d="M21.2938 25H4.30178V0.987998H21.2938V5.488H9.41378V10.564H21.0418V15.064H9.41378V20.5H21.2938V25ZM40.1941 25H35.6221V23.2C34.3741 24.688 32.5381 25.432 30.1141 25.432C28.5541 25.432 27.1501 24.928 25.9021 23.92C24.6781 22.888 24.0661 21.472 24.0661 19.672C24.0661 17.8 24.6661 16.396 25.8661 15.46C27.0901 14.524 28.5061 14.056 30.1141 14.056C32.5861 14.056 34.4221 14.764 35.6221 16.18V13.84C35.6221 12.952 35.2741 12.244 34.5781 11.716C33.8821 11.188 32.9581 10.924 31.8061 10.924C29.9101 10.924 28.2181 11.608 26.7301 12.976L25.0021 9.916C27.0661 8.092 29.5981 7.18 32.5981 7.18C34.8301 7.18 36.6541 7.696 38.0701 8.728C39.4861 9.76 40.1941 11.44 40.1941 13.768V25ZM31.9501 22.336C33.6541 22.336 34.8781 21.832 35.6221 20.824V18.664C34.8781 17.656 33.6541 17.152 31.9501 17.152C31.0141 17.152 30.2341 17.392 29.6101 17.872C28.9861 18.328 28.6741 18.964 28.6741 19.78C28.6741 20.572 28.9861 21.196 29.6101 21.652C30.2341 22.108 31.0141 22.336 31.9501 22.336ZM50.9929 25.432C49.4809 25.432 48.0289 25.192 46.6369 24.712C45.2689 24.232 44.1289 23.572 43.2169 22.732L45.1969 19.528C45.8689 20.152 46.7809 20.704 47.9329 21.184C49.0849 21.664 50.1769 21.904 51.2089 21.904C52.1689 21.904 52.8889 21.736 53.3689 21.4C53.8729 21.064 54.1249 20.608 54.1249 20.032C54.1249 19.6 53.8609 19.252 53.3329 18.988C52.8289 18.7 52.1929 18.496 51.4249 18.376C50.6809 18.256 49.8529 18.076 48.9409 17.836C48.0529 17.596 47.2249 17.308 46.4569 16.972C45.7129 16.636 45.0769 16.108 44.5489 15.388C44.0449 14.644 43.7929 13.732 43.7929 12.652C43.7929 11.116 44.4289 9.82 45.7009 8.764C46.9729 7.708 48.7129 7.18 50.9209 7.18C53.6089 7.18 55.9489 7.972 57.9409 9.556L56.1049 12.688C55.5529 12.112 54.8089 11.632 53.8729 11.248C52.9609 10.864 51.9889 10.672 50.9569 10.672C50.1409 10.672 49.4809 10.84 48.9769 11.176C48.4729 11.488 48.2209 11.896 48.2209 12.4C48.2209 12.784 48.4729 13.108 48.9769 13.372C49.4809 13.612 50.1169 13.792 50.8849 13.912C51.6529 14.032 52.4809 14.224 53.3689 14.488C54.2569 14.728 55.0849 15.028 55.8529 15.388C56.6209 15.724 57.2569 16.276 57.7609 17.044C58.2649 17.812 58.5169 18.748 58.5169 19.852C58.5169 21.484 57.8449 22.828 56.5009 23.884C55.1809 24.916 53.3449 25.432 50.9929 25.432ZM61.2732 31.804L61.9572 27.7C62.3892 27.892 62.8692 27.988 63.3972 27.988C64.6212 27.988 65.4252 27.568 65.8092 26.728L66.4572 25.252L59.4012 7.612H64.2972L68.8332 19.708L73.3692 7.612H78.3012L70.1292 27.844C69.5292 29.38 68.6892 30.448 67.6092 31.048C66.5292 31.672 65.1732 32.008 63.5412 32.056C62.7012 32.056 61.9452 31.972 61.2732 31.804ZM38.9284 60H34.3564V58.2C33.1084 59.688 31.2724 60.432 28.8484 60.432C27.2884 60.432 25.8844 59.928 24.6364 58.92C23.4124 57.888 22.8004 56.472 22.8004 54.672C22.8004 52.8 23.4004 51.396 24.6004 50.46C25.8244 49.524 27.2404 49.056 28.8484 49.056C31.3204 49.056 33.1564 49.764 34.3564 51.18V48.84C34.3564 47.952 34.0084 47.244 33.3124 46.716C32.6164 46.188 31.6924 45.924 30.5404 45.924C28.6444 45.924 26.9524 46.608 25.4644 47.976L23.7364 44.916C25.8004 43.092 28.3324 42.18 31.3324 42.18C33.5644 42.18 35.3884 42.696 36.8044 43.728C38.2204 44.76 38.9284 46.44 38.9284 48.768V60ZM30.6844 57.336C32.3884 57.336 33.6124 56.832 34.3564 55.824V53.664C33.6124 52.656 32.3884 52.152 30.6844 52.152C29.7484 52.152 28.9684 52.392 28.3444 52.872C27.7204 53.328 27.4084 53.964 27.4084 54.78C27.4084 55.572 27.7204 56.196 28.3444 56.652C28.9684 57.108 29.7484 57.336 30.6844 57.336ZM49.7273 60.432C48.2153 60.432 46.7633 60.192 45.3713 59.712C44.0033 59.232 42.8633 58.572 41.9513 57.732L43.9313 54.528C44.6033 55.152 45.5153 55.704 46.6673 56.184C47.8193 56.664 48.9113 56.904 49.9433 56.904C50.9033 56.904 51.6233 56.736 52.1033 56.4C52.6073 56.064 52.8593 55.608 52.8593 55.032C52.8593 54.6 52.5953 54.252 52.0673 53.988C51.5633 53.7 50.9273 53.496 50.1593 53.376C49.4153 53.256 48.5873 53.076 47.6753 52.836C46.7873 52.596 45.9593 52.308 45.1913 51.972C44.4473 51.636 43.8113 51.108 43.2833 50.388C42.7793 49.644 42.5273 48.732 42.5273 47.652C42.5273 46.116 43.1633 44.82 44.4353 43.764C45.7073 42.708 47.4473 42.18 49.6553 42.18C52.3433 42.18 54.6833 42.972 56.6753 44.556L54.8393 47.688C54.2873 47.112 53.5433 46.632 52.6073 46.248C51.6953 45.864 50.7233 45.672 49.6913 45.672C48.8753 45.672 48.2153 45.84 47.7113 46.176C47.2073 46.488 46.9553 46.896 46.9553 47.4C46.9553 47.784 47.2073 48.108 47.7113 48.372C48.2153 48.612 48.8513 48.792 49.6193 48.912C50.3873 49.032 51.2153 49.224 52.1033 49.488C52.9913 49.728 53.8193 50.028 54.5873 50.388C55.3553 50.724 55.9913 51.276 56.4953 52.044C56.9993 52.812 57.2513 53.748 57.2513 54.852C57.2513 56.484 56.5793 57.828 55.2353 58.884C53.9153 59.916 52.0793 60.432 49.7273 60.432ZM12.8692 95H7.75722V77.576L3.76122 81.644L0.845219 78.584L8.40522 70.988H12.8692V95ZM24.97 88.232H16.33V84.344H24.97V88.232ZM45.807 95H27.735V91.004C32.871 87.188 36.267 84.476 37.923 82.868C39.603 81.236 40.443 79.712 40.443 78.296C40.443 77.312 40.059 76.544 39.291 75.992C38.523 75.44 37.611 75.164 36.555 75.164C34.035 75.164 31.887 76.088 30.111 77.936L27.195 74.552C28.323 73.256 29.703 72.284 31.335 71.636C32.991 70.964 34.695 70.628 36.447 70.628C39.087 70.628 41.271 71.324 42.999 72.716C44.751 74.108 45.627 75.968 45.627 78.296C45.627 80.264 44.847 82.196 43.287 84.092C41.751 85.964 39.327 88.1 36.015 90.5H45.807V95ZM57.3489 88.232H48.7089V84.344H57.3489V88.232ZM68.6099 95.432C66.4979 95.432 64.6259 95.084 62.9939 94.388C61.3619 93.668 60.0779 92.732 59.1419 91.58L61.8059 88.16C62.6219 89 63.6299 89.672 64.8299 90.176C66.0299 90.656 67.2299 90.896 68.4299 90.896C69.8699 90.896 70.9859 90.62 71.7779 90.068C72.5699 89.492 72.9659 88.748 72.9659 87.836C72.9659 86.876 72.5819 86.18 71.8139 85.748C71.0459 85.292 69.8219 85.064 68.1419 85.064C66.6299 85.064 65.6339 85.088 65.1539 85.136V80.528C65.4419 80.552 66.4379 80.564 68.1419 80.564C71.0939 80.564 72.5699 79.712 72.5699 78.008C72.5699 77.096 72.1499 76.4 71.3099 75.92C70.4939 75.416 69.4259 75.164 68.1059 75.164C65.7779 75.164 63.7499 75.992 62.0219 77.648L59.4659 74.444C61.7219 71.9 64.7819 70.628 68.6459 70.628C71.4539 70.628 73.6619 71.216 75.2699 72.392C76.9019 73.568 77.7179 75.152 77.7179 77.144C77.7179 78.584 77.2019 79.796 76.1699 80.78C75.1379 81.74 73.9019 82.352 72.4619 82.616C73.8779 82.76 75.1619 83.348 76.3139 84.38C77.4899 85.388 78.0779 86.72 78.0779 88.376C78.0779 90.464 77.2139 92.168 75.4859 93.488C73.7579 94.784 71.4659 95.432 68.6099 95.432Z" fill="black"/>
</svg>
