<svg width="81" height="80" viewBox="0 0 81 80" fill="none" xmlns="http://www.w3.org/2000/svg">
<path d="M21.2963 13.3044C21.2963 12.201 20.3978 11.2867 19.2786 11.2867H15.8737L15.9525 10.7507C16.4411 7.18818 18.585 6.98325 19.3889 6.9202C19.9564 6.87291 20.3978 6.4 20.3978 5.81675V1.10345C20.3978 0.803941 20.2717 0.504433 20.051 0.299507C19.8461 0.110345 19.5781 0 19.2943 0C19.2786 0 19.2471 0 19.2313 0C14.4392 0.26798 8.74854 2.69557 8.74854 12.7212V20.9182C8.74854 22.0217 9.64706 22.936 10.7663 22.936H19.2943C19.8303 22.936 20.3347 22.731 20.7131 22.3527C21.0914 21.9744 21.2963 21.47 21.2963 20.934V13.3044ZM19.0894 20.7291H10.9554V12.7212C10.9554 6.62069 13.1308 3.24729 17.6234 2.41182L18.1909 2.30148V4.8867L17.8599 4.98128C15.9367 5.56453 13.651 7.33005 13.651 12.3901C13.651 13.0049 14.1397 13.4936 14.7544 13.4936H19.1052V20.7291H19.0894Z" fill="black"/>
<path d="M37.407 13.3044C37.407 12.201 36.5085 11.2867 35.3893 11.2867H32.0001L32.0789 10.7507C32.5676 7.18818 34.7115 6.98325 35.5154 6.9202C36.0829 6.87291 36.5243 6.4 36.5243 5.81675V1.10345C36.5243 0.803941 36.3982 0.504433 36.1775 0.299507C35.9725 0.110345 35.7046 0 35.4208 0C35.4051 0 35.3735 0 35.3578 0C30.5814 0.26798 24.875 2.69557 24.875 12.7212V20.9182C24.875 22.0217 25.7735 22.936 26.8927 22.936H35.4208C35.9568 22.936 36.4612 22.731 36.8395 22.3527C37.2179 21.9744 37.4228 21.47 37.4228 20.934V13.3044H37.407ZM35.2001 20.7291H27.0661V12.7212C27.0661 6.62069 29.2415 3.24729 33.7341 2.41182L34.3016 2.30148V4.8867L33.9706 4.98128C32.0474 5.56453 29.7617 7.33005 29.7617 12.3901C29.7617 13.0049 30.2504 13.4936 30.8651 13.4936H35.2159V20.7291H35.2001Z" fill="black"/>
<path d="M43.586 12.0432C43.2392 12.0432 42.8924 12.1851 42.6402 12.4373C42.388 12.6895 42.2461 13.0363 42.2461 13.3831C42.2461 13.7299 42.388 14.0767 42.6402 14.3289C42.8924 14.5811 43.2392 14.723 43.586 14.723C43.9328 14.723 44.2796 14.5811 44.5318 14.3289C44.784 14.0767 44.9259 13.7299 44.9259 13.3831C44.9259 13.0363 44.784 12.6895 44.5318 12.4373C44.2796 12.1851 43.9328 12.0432 43.586 12.0432Z" fill="black"/>
<path d="M5.31232 25.8205C5.10739 25.7102 4.8867 25.6472 4.66601 25.6472C4.5399 25.6472 4.41379 25.6629 4.30345 25.6944C3.95665 25.789 3.67291 26.0255 3.49951 26.325C1.21379 30.4393 0 35.0895 0 39.8186C0 55.1407 12.469 67.5939 27.7754 67.5939H44.9419L56.9537 79.6058C57.2059 79.858 57.5369 79.9998 57.8995 79.9998C58.0729 79.9998 58.2463 79.9683 58.4197 79.9053C58.9241 79.7003 59.2394 79.2117 59.2394 78.66V66.7585L59.4128 66.7112C65.0562 65.2452 70.2108 61.9506 73.9153 57.4422C77.9823 52.4925 80.2207 46.2343 80.2207 39.8186C80.2207 24.4964 67.7517 12.0432 52.4453 12.0432H50.4591C49.7182 12.0432 49.1192 12.6422 49.1192 13.3831C49.1192 14.124 49.7182 14.723 50.4591 14.723H52.4453C66.2857 14.723 77.5409 25.9782 77.5409 39.8186C77.5409 51.6255 69.1547 61.9664 57.6158 64.3782C57.001 64.5043 56.5438 65.056 56.5438 65.6866V75.4127L46.4236 65.2925C46.1714 65.0402 45.8246 64.8984 45.4778 64.8984H27.7754C13.935 64.9141 2.6798 53.659 2.6798 39.8186C2.6798 35.5467 3.76749 31.3378 5.83251 27.6334C6.19507 26.9871 5.95862 26.1673 5.31232 25.8205Z" fill="black"/>
<path d="M59.5233 27.7439H20.7134C19.9725 27.7439 19.3735 28.3429 19.3735 29.0838C19.3735 29.8247 19.9725 30.4237 20.7134 30.4237H59.5075C60.2484 30.4237 60.8474 29.8247 60.8474 29.0838C60.8474 28.3429 60.2642 27.7439 59.5233 27.7439Z" fill="black"/>
<path d="M59.5233 36.1458H20.7134C19.9725 36.1458 19.3735 36.7448 19.3735 37.4857C19.3735 38.2265 19.9725 38.8256 20.7134 38.8256H59.5075C60.2484 38.8256 60.8474 38.2265 60.8474 37.4857C60.8474 36.7448 60.2642 36.1458 59.5233 36.1458Z" fill="black"/>
<path d="M59.5233 44.5635H20.7134C19.9725 44.5635 19.3735 45.1625 19.3735 45.9034C19.3735 46.6443 19.9725 47.2433 20.7134 47.2433H59.5075C60.2484 47.2433 60.8474 46.6443 60.8474 45.9034C60.8474 45.1625 60.2642 44.5635 59.5233 44.5635Z" fill="black"/>
<path d="M59.5231 52.9656H38.8414C38.1005 52.9656 37.5015 53.5646 37.5015 54.3055C37.5015 55.0464 38.1005 55.6454 38.8414 55.6454H59.5231C60.264 55.6454 60.863 55.0464 60.863 54.3055C60.863 53.5646 60.2483 52.9656 59.5231 52.9656Z" fill="black"/>
<path d="M29.9666 52.9656H29.9351C29.1942 52.9656 28.5952 53.5646 28.5952 54.3055C28.5952 55.0464 29.1942 55.6454 29.9351 55.6454H29.9666C30.7075 55.6454 31.3065 55.0464 31.3065 54.3055C31.3065 53.5646 30.7075 52.9656 29.9666 52.9656Z" fill="black"/>
</svg>
